<svg width="960" height="1200" viewBox="0 0 960 1200" fill="none" xmlns="http://www.w3.org/2000/svg">
  <rect width="960" height="1200" rx="48" fill="#F2EEE7"/>
  <rect x="44" y="44" width="872" height="1112" rx="30" fill="#FBFAF7" stroke="#D7D0C6" stroke-width="2"/>
  <circle cx="480" cy="410" r="172" fill="url(#paint0_radial)"/>
  <path d="M261 947C279 774 363 686 480 686C597 686 681 774 699 947" fill="url(#paint1_linear)"/>
  <path d="M239 950C259 750 357 642 480 642C603 642 701 750 721 950" stroke="#9F957F" stroke-width="2.5" stroke-linecap="round"/>
  <circle cx="480" cy="410" r="171" stroke="#9F957F" stroke-width="2.5"/>
  <path d="M186 184H774" stroke="#C8BEAF" stroke-width="2"/>
  <path d="M186 1016H774" stroke="#C8BEAF" stroke-width="2"/>
  <path d="M186 1060H774" stroke="#D8D0C5" stroke-width="2"/>
  <path d="M186 1102H602" stroke="#D8D0C5" stroke-width="2"/>
  <rect x="188" y="126" width="185" height="34" rx="17" fill="#EEE7DD"/>
  <text x="480" y="1047" text-anchor="middle" fill="#5E574D" font-family="Georgia, 'Times New Roman', serif" font-size="34" letter-spacing="1.2">Portrait placeholder</text>
  <text x="480" y="1092" text-anchor="middle" fill="#7B7468" font-family="Georgia, 'Times New Roman', serif" font-size="24">Replace with a real portrait or study photograph</text>
  <defs>
    <radialGradient id="paint0_radial" cx="0" cy="0" r="1" gradientUnits="userSpaceOnUse" gradientTransform="translate(480 360) rotate(90) scale(220)">
      <stop stop-color="#DAD0C2"/>
      <stop offset="1" stop-color="#C5B8A7"/>
    </radialGradient>
    <linearGradient id="paint1_linear" x1="480" y1="686" x2="480" y2="947" gradientUnits="userSpaceOnUse">
      <stop stop-color="#D4C8B9"/>
      <stop offset="1" stop-color="#B7AA98"/>
    </linearGradient>
  </defs>
</svg>
